<svg width="100" height="100" viewBox="0 0 100 100" fill="none" xmlns="http://www.w3.org/2000/svg">
<g clip-path="url(#clip0_2_18)">
<path d="M70.824 0.711992L73.17 4.162L69.168 12.166C73.768 16.122 77.54 21.78 80.484 29.14C83.52 36.5 85.038 43.676 85.038 50.668C85.038 57.66 84.302 63.824 82.83 69.16C81.45 74.404 79.334 79.326 76.482 83.926C73.63 88.434 69.628 92.022 64.476 94.69C59.416 97.358 53.528 98.692 46.812 98.692C37.244 98.692 29.24 95.058 22.8 87.79C16.36 80.522 13.14 70.494 13.14 57.706C13.14 44.826 17.188 33.096 25.284 22.516C29.516 16.904 35.542 12.166 43.362 8.30199C51.182 4.34599 60.336 1.81599 70.824 0.711992ZM50.262 87.238C58.634 86.962 65.028 83.834 69.444 77.854C73.952 71.874 76.206 64.882 76.206 56.878C76.206 48.782 74.872 40.732 72.204 32.728C69.536 24.724 65.81 18.33 61.026 13.546C49.342 15.202 40.648 19.572 34.944 26.656C29.24 33.648 26.388 42.48 26.388 53.152C26.388 63.732 28.688 72.058 33.288 78.13C37.98 84.202 43.638 87.238 50.262 87.238Z" fill="#4D946E"/>
</g>
<defs>
<clipPath id="clip0_2_18">
<rect width="100" height="100" fill="white"/>
</clipPath>
</defs>
</svg>
